<?xml version="1.0" encoding="UTF-8"?>
<svg width="50px" height="50px" viewBox="0 0 50 50" version="1.1" xmlns="http://www.w3.org/2000/svg" xmlns:xlink="http://www.w3.org/1999/xlink">
    <!-- Generator: Sketch 46.2 (44496) - http://www.bohemiancoding.com/sketch -->
    <title>behance</title>
    <desc>Created with Sketch.</desc>
    <defs></defs>
    <g id="Page-1" stroke="none" stroke-width="1" fill="none" fill-rule="evenodd">
        <g id="behance" fill-rule="nonzero" fill="#000000">
            <path d="M35.031,22.257 C31.857,22.257 31.416,25.425 31.416,25.425 L38.164,25.425 C38.164,25.425 38.207,22.257 35.031,22.257 Z" id="Shape"></path>
            <path d="M19.721,25.425 L13.739,25.425 L13.739,30.917 L19.035,30.917 C19.125,30.917 19.26,30.919 19.418,30.917 C20.27,30.897 21.885,30.649 21.885,28.247 C21.885,25.396 19.721,25.425 19.721,25.425 Z" id="Shape"></path>
            <path d="M25.348,0.101 C11.748,0.101 0.723,11.124 0.723,24.724 C0.723,38.324 11.748,49.349 25.348,49.349 C38.946,49.349 49.971,38.324 49.971,24.724 C49.971,11.125 38.945,0.101 25.348,0.101 Z M30.531,15.231 L39.008,15.231 L39.008,17.761 L30.531,17.761 L30.531,15.231 L30.531,15.231 Z M26.246,28.503 C26.246,34.774 19.721,34.567 19.721,34.567 L13.739,34.567 L13.564,34.567 L9.029,34.567 L9.029,14.021 L13.564,14.021 L13.739,14.021 L19.721,14.021 C22.969,14.021 25.533,15.815 25.533,19.491 C25.533,23.167 22.398,23.401 22.398,23.401 C26.531,23.401 26.246,28.503 26.246,28.503 Z M42.104,28.167 L31.457,28.167 C31.457,31.983 35.072,31.743 35.072,31.743 C38.486,31.743 38.367,29.532 38.367,29.532 L41.984,29.532 C41.984,35.399 34.951,34.997 34.951,34.997 C26.515,34.997 27.058,27.142 27.058,27.142 C27.058,27.142 27.05,19.249 34.951,19.249 C43.268,19.249 42.104,28.167 42.104,28.167 Z" id="Shape"></path>
            <path d="M21.174,19.81 C21.174,17.673 19.721,17.673 19.721,17.673 L18.951,17.673 L13.739,17.673 L13.739,22.257 L19.35,22.257 C20.318,22.257 21.174,21.946 21.174,19.81 Z" id="Shape"></path>
        </g>
    </g>
</svg>