<?xml version="1.0" encoding="utf-8"?>
<!-- Generator: Adobe Illustrator 21.0.0, SVG Export Plug-In . SVG Version: 6.00 Build 0)  -->
<svg version="1.1" xmlns="http://www.w3.org/2000/svg" xmlns:xlink="http://www.w3.org/1999/xlink" x="0px" y="0px"
	 viewBox="0 0 841.9 595.3" style="enable-background:new 0 0 841.9 595.3;" xml:space="preserve">
<style type="text/css">
	.st0{fill:#1C2241;}
	.st1{fill:#E94A32;}
	.st2{fill:#FEDF7F;}
	.st3{fill:#FDFDFD;}
</style>
<g id="Слой_1">
	<g>
		<path class="st0" d="M325.3,130.2c0.1,18.2,8.7,30.6,25.8,37.6c-18.3,0.6-30.6,9.2-37.1,26.1c-0.4-18.2-8.9-30.6-25.9-37.3
			C306.5,156,318.9,147.3,325.3,130.2z"/>
		<path class="st0" d="M568.7,266.5c9.6,2.4,17.2,0,23.6-7.5c-2.3,9.6,0,17.3,7.7,23.7c-9.5-2.5-17.1-0.1-23.7,7.4
			C578.7,280.4,576.2,272.9,568.7,266.5z"/>
		<path class="st0" d="M255.5,312.7c-2.7,6.8-2,13.1,2.2,19c-6.8-2.8-13-2-19.3,2.8c2.9-7.1,2.4-13.5-2-19.4
			C243.4,317.8,249.7,317.1,255.5,312.7z"/>
		<path class="st1" d="M357.3,428.1c-0.1,0.1-0.2,0.2-0.3,0.3c-0.4,0.3-0.9,0.7-1.4,1c-0.2,0.1-0.3,0.2-0.5,0.3
			c-0.4,0.3-0.9,0.6-1.3,0.9c-0.2,0.1-0.4,0.2-0.5,0.3c-0.4,0.3-0.9,0.5-1.3,0.8c-0.2,0.1-0.3,0.2-0.5,0.3c-1.4,0.8-2.9,1.5-4.4,2.2
			c-0.3,0.1-0.5,0.2-0.8,0.3c-0.4,0.1-0.7,0.3-1.1,0.4c-0.3,0.1-0.7,0.3-1,0.4c-0.3,0.1-0.7,0.2-1,0.4c-0.4,0.1-0.7,0.3-1.1,0.4
			c-0.3,0.1-0.6,0.2-0.9,0.3c-0.4,0.1-0.8,0.2-1.2,0.4c-0.3,0.1-0.6,0.2-0.9,0.2c-0.5,0.1-1,0.2-1.4,0.3c-0.2,0.1-0.5,0.1-0.7,0.2
			c-0.7,0.2-1.4,0.3-2.2,0.4c-13.7,2.5-21.9,15.2-21.9,15.2l0,0l0,0c0,0-5.1-5.1-6.5-15.2c-21.8-3.2-39.8-12-39.8-12l0,0l0,0
			c0,0,0.5,0.1,1.4,0.1c4.1,0,15.6-1.8,15.6-21.5c0-24,0.6-36.4,17.9-52.5c8.8-8.2,19.2-10.2,27.3-10.2c7.8,0,13.5,1.9,13.5,1.9
			l34.6,34.6c0,0,6.2,13.3-9.4,39.7c-1.2,1.6-2.5,3.2-3.8,4.6c0,0,0,0,0,0c0,0,0,0-0.1,0.1C361.5,424.6,359.4,426.4,357.3,428.1z"/>
		<path class="st2" d="M294.7,421.4c0.5-2.1,0.9-3.8,1.3-5.5c1.2-4.3,1.6-8.8,1.7-13.3c0.1-6.2,0.4-12.5,0.8-18.7
			c0.4-5.6,2.5-12.1,6.1-16.3c3-3.6,6-6,10.3-8.6c6.9-3.9,13-4.4,20.1-3.4c0.6,0.1,1.2,0.6,1.6,1c9,9,18,18,27,26.9
			c1.4,1.4,1.1,2.9,1.1,4.5c-0.3,5.3-2.5,9.9-4.4,14.7c-5.3,12.9-15.7,19-28.6,21.9c-1.8,0.4-3.7,0.9-5.8,1.4
			c0.4-13-3.1-22.2-3.1-22.2s-0.4,3.6-0.7,5.1c-1.4,6.9-5.8,11.5-11.5,15.2c-0.3,0.2-0.8,0.4-1.2,0.3
			C304.6,423.4,299.8,422.4,294.7,421.4z"/>
		<path class="st3" d="M504.7,183.4C504.7,183.4,504.8,183.4,504.7,183.4c2.3-0.6,4.5-1.1,6.6-1.5c0.1,0,0.1,0,0.2,0
			c1-0.2,2-0.4,3-0.5c0.1,0,0.2,0,0.3,0c0.9-0.1,1.8-0.3,2.7-0.3c0.1,0,0.1,0,0.2,0c0.9-0.1,1.7-0.2,2.6-0.2c0.2,0,0.3,0,0.5,0
			c0.8,0,1.6-0.1,2.4-0.1c0,0,0,0,0,0c0,0,0,0,0,0c5.1,0,9.2,0.9,12,2.9c0.4,0.3,0.7,0.7,1,1.1l0,0c6.9,9.8,0.9,35.5-12.2,64.2
			c0,0,0,0,0,0c-15.1,33-39.5,69.8-64.3,90.5c-8.9-5.1-27.6-17-45.1-34.4c-16.6-16.6-28.7-35.5-34.2-44.7
			C408.6,226.1,467.2,192.9,504.7,183.4z"/>
		<path class="st3" d="M388.2,373.5l-42-42c0,0,3-26.1,25.7-60c6.6,10.6,18.1,27.3,33.3,42.6c15.9,15.9,32.5,27.2,42.9,33.6
			C414.3,370.4,388.2,373.5,388.2,373.5z"/>
		<path class="st0" d="M620.3,380.2c4.3-11-27.5-34.8-79.3-61.6c0.1-2.2,0.2-4.4,0.2-6.6c0-17.7-3.7-34.5-10.4-49.7
			c8.1-16.4,14.1-32.1,17.4-45.4c4.4-18,3.7-30.8-2.3-39.2c-0.1-0.1-0.2-0.2-0.2-0.3c-1-1.3-2.1-2.4-3.4-3.4
			c-0.1-0.1-0.2-0.2-0.3-0.2c-4.8-3.4-11.1-5.1-18.9-5.1c-17.6,0-44.5,8.9-73.3,24.1c-10.2-2.7-20.8-4.2-31.8-4.2
			c-38,0-72,17.2-94.6,44.2c-57.2-15.9-97.4-20.4-101.8-9.3c-5.2,13.3,41.9,44.9,113.1,78.3L296,294c-0.8,5.8-1.3,11.8-1.3,17.9
			c0,9.5,1.1,18.7,3.1,27.6c-1.6,1.2-3.1,2.4-4.6,3.8c-10,9.3-15.7,18.2-18.8,28.8c-2.7,9.5-2.9,19.4-3,32.5c0,5.3-1.1,8.2-2.1,9
			c-0.5,0.4-1.4,0.5-1.5,0.5l0,0c-0.5-0.1-0.9-0.1-1.4-0.1c-5.2,0-9.9,3.4-11.4,8.4c-1.8,5.7,0.9,11.8,6.2,14.4
			c0.7,0.3,15.7,7.6,35.3,11.7c2.7,7.8,6.8,12.2,7.8,13.2c2.3,2.3,5.3,3.6,8.5,3.6c0.4,0,0.9,0,1.3-0.1c3.6-0.4,6.8-2.4,8.7-5.5
			c1.6-2.4,7.2-8.7,14-10c15.9-2.9,28.7-10.4,38.3-22.1c13.4,5,27.8,7.7,42.9,7.7c46,0,86-25.2,107.2-62.4
			C578.8,387.2,616.1,390.9,620.3,380.2z M269.1,242.3c2.2-5.7,19.7-4.9,46.3,1.1c-5.8,8.7-10.5,18.1-14,28.2
			C279.3,258.4,266.9,247.8,269.1,242.3z M504.7,183.4C504.7,183.4,504.8,183.4,504.7,183.4c2.3-0.6,4.5-1.1,6.6-1.5
			c0.1,0,0.1,0,0.2,0c1-0.2,2-0.4,3-0.5c0.1,0,0.2,0,0.3,0c0.9-0.1,1.8-0.3,2.7-0.3c0.1,0,0.1,0,0.2,0c0.9-0.1,1.7-0.2,2.6-0.2
			c0.2,0,0.3,0,0.5,0c0.8,0,1.6-0.1,2.4-0.1c0,0,0,0,0,0c0,0,0,0,0,0c5.1,0,9.2,0.9,12,2.9c0.4,0.3,0.7,0.7,1,1.1l0,0
			c6.9,9.8,0.9,35.5-12.2,64.2c0,0,0,0,0,0c-15.1,33-39.5,69.8-64.3,90.5c-8.9-5.1-27.6-17-45.1-34.4
			c-16.6-16.6-28.7-35.5-34.2-44.7C408.6,226.1,467.2,192.9,504.7,183.4z M357.3,428.1c-0.1,0.1-0.2,0.2-0.3,0.3
			c-0.4,0.3-0.9,0.7-1.4,1c-0.2,0.1-0.3,0.2-0.5,0.3c-0.4,0.3-0.9,0.6-1.3,0.9c-0.2,0.1-0.4,0.2-0.5,0.3c-0.4,0.3-0.9,0.5-1.3,0.8
			c-0.2,0.1-0.3,0.2-0.5,0.3c-1.4,0.8-2.9,1.5-4.4,2.2c-0.3,0.1-0.5,0.2-0.8,0.3c-0.4,0.1-0.7,0.3-1.1,0.4c-0.3,0.1-0.7,0.3-1,0.4
			c-0.3,0.1-0.7,0.2-1,0.4c-0.4,0.1-0.7,0.3-1.1,0.4c-0.3,0.1-0.6,0.2-0.9,0.3c-0.4,0.1-0.8,0.2-1.2,0.4c-0.3,0.1-0.6,0.2-0.9,0.2
			c-0.5,0.1-1,0.2-1.4,0.3c-0.2,0.1-0.5,0.1-0.7,0.2c-0.7,0.2-1.4,0.3-2.2,0.4c-13.7,2.5-21.9,15.2-21.9,15.2l0,0l0,0
			c0,0-5.1-5.1-6.5-15.2c-21.8-3.2-39.8-12-39.8-12l0,0l0,0c0,0,0.5,0.1,1.4,0.1c4.1,0,15.6-1.8,15.6-21.5c0-24,0.6-36.4,17.9-52.5
			c8.8-8.2,19.2-10.2,27.3-10.2c7.8,0,13.5,1.9,13.5,1.9l34.6,34.6c0,0,6.2,13.3-9.4,39.7c-1.2,1.6-2.5,3.2-3.8,4.6c0,0,0,0,0,0
			c0,0,0,0-0.1,0.1C361.5,424.6,359.4,426.5,357.3,428.1z M388.2,373.5l-42-42c0,0,3-26.1,25.7-60c6.6,10.6,18.1,27.3,33.3,42.6
			c15.9,15.9,32.5,27.2,42.9,33.6C414.3,370.4,388.2,373.5,388.2,373.5z M503.7,354.6l-7.4-2.5l37.9,1.1c2.5-6.9,4.3-14.1,5.5-21.5
			c22.6,13.3,35.3,24.2,33.2,29.8C569.9,368.7,542.9,365.5,503.7,354.6z"/>
	</g>
</g>
<g id="Layer_2">
</g>
</svg>
