<?xml version="1.0" encoding="UTF-8"?>
<svg viewBox="0 0 400 336" version="1.1" xmlns="http://www.w3.org/2000/svg" xmlns:xlink="http://www.w3.org/1999/xlink">
    <!-- Generator: Sketch 46.2 (44496) - http://www.bohemiancoding.com/sketch -->
    <title>logo</title>
    <desc>Created with Sketch.</desc>
    <defs></defs>
    <g id="Page-1" stroke="none" stroke-width="1" fill="none" fill-rule="evenodd">
        <g id="logo" fill-rule="nonzero">
            <path d="M104.3,0.2 C104.4,18.4 113,30.8 130.1,37.8 C111.8,38.4 99.5,47 93,63.9 C92.6,45.7 84.1,33.3 67.1,26.6 C85.5,26 97.9,17.3 104.3,0.2 L104.3,0.2 Z M347.7,136.5 C357.3,138.9 364.9,136.5 371.3,129 C369,138.6 371.3,146.3 379,152.7 C369.5,150.2 361.9,152.6 355.3,160.1 C357.7,150.4 355.2,142.9 347.7,136.5 L347.7,136.5 Z M34.5,182.7 C31.8,189.5 32.5,195.8 36.7,201.7 C29.9,198.9 23.7,199.7 17.4,204.5 C20.3,197.4 19.8,191 15.4,185.1 C22.4,187.8 28.7,187.1 34.5,182.7 L34.5,182.7 Z" id="Shape" fill="#1C2241"></path>
            <path d="M136.3,298.1 L136,298.4 C135.6,298.7 135.1,299.1 134.6,299.4 C134.4,299.5 134.3,299.6 134.1,299.7 C133.7,300 133.2,300.3 132.8,300.6 C132.6,300.7 132.4,300.8 132.3,300.9 C131.9,301.2 131.4,301.4 131,301.7 C130.8,301.8 130.7,301.9 130.5,302 C129.1,302.8 127.6,303.5 126.1,304.2 C125.8,304.3 125.6,304.4 125.3,304.5 C124.9,304.6 124.6,304.8 124.2,304.9 C123.9,305 123.5,305.2 123.2,305.3 C122.9,305.4 122.5,305.5 122.2,305.7 C121.8,305.8 121.5,306 121.1,306.1 L120.2,306.4 C119.8,306.5 119.4,306.6 119,306.8 C118.7,306.9 118.4,307 118.1,307 C117.6,307.1 117.1,307.2 116.7,307.3 C116.5,307.4 116.2,307.4 116,307.5 C115.3,307.7 114.6,307.8 113.8,307.9 C100.1,310.4 91.9,323.1 91.9,323.1 C91.9,323.1 86.8,318 85.4,307.9 C63.6,304.7 45.6,295.9 45.6,295.9 C45.6,295.9 46.1,296 47,296 C51.1,296 62.6,294.2 62.6,274.5 C62.6,250.5 63.2,238.1 80.5,222 C89.3,213.8 99.7,211.8 107.8,211.8 C115.6,211.8 121.3,213.7 121.3,213.7 L155.9,248.3 C155.9,248.3 162.1,261.6 146.5,288 C145.3,289.6 144,291.2 142.7,292.6 L142.6,292.7 C140.5,294.6 138.4,296.4 136.3,298.1 L136.3,298.1 Z" id="Shape" fill="#E94A32"></path>
            <path d="M73.7,291.4 C74.2,289.3 74.6,287.6 75,285.9 C76.2,281.6 76.6,277.1 76.7,272.6 C76.8,266.4 77.1,260.1 77.5,253.9 C77.9,248.3 80,241.8 83.6,237.6 C86.6,234 89.6,231.6 93.9,229 C100.8,225.1 106.9,224.6 114,225.6 C114.6,225.7 115.2,226.2 115.6,226.6 C124.6,235.6 133.6,244.6 142.6,253.5 C144,254.9 143.7,256.4 143.7,258 C143.4,263.3 141.2,267.9 139.3,272.7 C134,285.6 123.6,291.7 110.7,294.6 C108.9,295 107,295.5 104.9,296 C105.3,283 101.8,273.8 101.8,273.8 C101.8,273.8 101.4,277.4 101.1,278.9 C99.7,285.8 95.3,290.4 89.6,294.1 C89.3,294.3 88.8,294.5 88.4,294.4 C83.6,293.4 78.8,292.4 73.7,291.4 L73.7,291.4 Z" id="Shape" fill="#FEDF7F"></path>
            <path d="M283.7,53.4 C283.7,53.4 283.8,53.4 283.7,53.4 C286,52.8 288.2,52.3 290.3,51.9 L290.5,51.9 C291.5,51.7 292.5,51.5 293.5,51.4 L293.8,51.4 C294.7,51.3 295.6,51.1 296.5,51.1 L296.7,51.1 C297.6,51 298.4,50.9 299.3,50.9 L299.8,50.9 C300.6,50.9 301.4,50.8 302.2,50.8 C307.3,50.8 311.4,51.7 314.2,53.7 C314.6,54 314.9,54.4 315.2,54.8 C322.1,64.6 316.1,90.3 303,119 C287.9,152 263.5,188.8 238.7,209.5 C229.8,204.4 211.1,192.5 193.6,175.1 C177,158.5 164.9,139.6 159.4,130.4 C187.6,96.1 246.2,62.9 283.7,53.4 Z M167.2,243.5 L125.2,201.5 C125.2,201.5 128.2,175.4 150.9,141.5 C157.5,152.1 169,168.8 184.2,184.1 C200.1,200 216.7,211.3 227.1,217.7 C193.3,240.4 167.2,243.5 167.2,243.5 L167.2,243.5 Z" id="Shape" fill="#FDFDFD"></path>
            <path d="M399.3,250.2 C403.6,239.2 371.8,215.4 320,188.6 C320.1,186.4 320.2,184.2 320.2,182 C320.2,164.3 316.5,147.5 309.8,132.3 C317.9,115.9 323.9,100.2 327.2,86.9 C331.6,68.9 330.9,56.1 324.9,47.7 C324.8,47.6 324.7,47.5 324.7,47.4 C323.7,46.1 322.6,45 321.3,44 C321.2,43.9 321.1,43.8 321,43.8 C316.2,40.4 309.9,38.7 302.1,38.7 C284.5,38.7 257.6,47.6 228.8,62.8 C218.6,60.1 208,58.6 197,58.6 C159,58.6 125,75.8 102.4,102.8 C45.2,86.9 5,82.4 0.6,93.5 C-4.6,106.8 42.5,138.4 113.7,171.8 L75,164 C74.2,169.8 73.7,175.8 73.7,181.9 C73.7,191.4 74.8,200.6 76.8,209.5 C75.2,210.7 73.7,211.9 72.2,213.3 C62.2,222.6 56.5,231.5 53.4,242.1 C50.7,251.6 50.5,261.5 50.4,274.6 C50.4,279.9 49.3,282.8 48.3,283.6 C47.8,284 46.9,284.1 46.8,284.1 C46.3,284 45.9,284 45.4,284 C40.2,284 35.5,287.4 34,292.4 C32.2,298.1 34.9,304.2 40.2,306.8 C40.9,307.1 55.9,314.4 75.5,318.5 C78.2,326.3 82.3,330.7 83.3,331.7 C85.6,334 88.6,335.3 91.8,335.3 C92.2,335.3 92.7,335.3 93.1,335.2 C96.7,334.8 99.9,332.8 101.8,329.7 C103.4,327.3 109,321 115.8,319.7 C131.7,316.8 144.5,309.3 154.1,297.6 C167.5,302.6 181.9,305.3 197,305.3 C243,305.3 283,280.1 304.2,242.9 C357.8,257.2 395.1,260.9 399.3,250.2 L399.3,250.2 Z M48.1,112.3 C50.3,106.6 67.8,107.4 94.4,113.4 C88.6,122.1 83.9,131.5 80.4,141.6 C58.3,128.4 45.9,117.8 48.1,112.3 Z M283.7,53.4 C283.7,53.4 283.8,53.4 283.7,53.4 C286,52.8 288.2,52.3 290.3,51.9 L290.5,51.9 C291.5,51.7 292.5,51.5 293.5,51.4 L293.8,51.4 C294.7,51.3 295.6,51.1 296.5,51.1 L296.7,51.1 C297.6,51 298.4,50.9 299.3,50.9 L299.8,50.9 C300.6,50.9 301.4,50.8 302.2,50.8 C307.3,50.8 311.4,51.7 314.2,53.7 C314.6,54 314.9,54.4 315.2,54.8 C322.1,64.6 316.1,90.3 303,119 C287.9,152 263.5,188.8 238.7,209.5 C229.8,204.4 211.1,192.5 193.6,175.1 C177,158.5 164.9,139.6 159.4,130.4 C187.6,96.1 246.2,62.9 283.7,53.4 L283.7,53.4 Z M136.3,298.1 L136,298.4 C135.6,298.7 135.1,299.1 134.6,299.4 C134.4,299.5 134.3,299.6 134.1,299.7 C133.7,300 133.2,300.3 132.8,300.6 C132.6,300.7 132.4,300.8 132.3,300.9 C131.9,301.2 131.4,301.4 131,301.7 C130.8,301.8 130.7,301.9 130.5,302 C129.1,302.8 127.6,303.5 126.1,304.2 C125.8,304.3 125.6,304.4 125.3,304.5 C124.9,304.6 124.6,304.8 124.2,304.9 C123.9,305 123.5,305.2 123.2,305.3 C122.9,305.4 122.5,305.5 122.2,305.7 C121.8,305.8 121.5,306 121.1,306.1 L120.2,306.4 C119.8,306.5 119.4,306.6 119,306.8 C118.7,306.9 118.4,307 118.1,307 C117.6,307.1 117.1,307.2 116.7,307.3 C116.5,307.4 116.2,307.4 116,307.5 C115.3,307.7 114.6,307.8 113.8,307.9 C100.1,310.4 91.9,323.1 91.9,323.1 C91.9,323.1 86.8,318 85.4,307.9 C63.6,304.7 45.6,295.9 45.6,295.9 C45.6,295.9 46.1,296 47,296 C51.1,296 62.6,294.2 62.6,274.5 C62.6,250.5 63.2,238.1 80.5,222 C89.3,213.8 99.7,211.8 107.8,211.8 C115.6,211.8 121.3,213.7 121.3,213.7 L155.9,248.3 C155.9,248.3 162.1,261.6 146.5,288 C145.3,289.6 144,291.2 142.7,292.6 L142.6,292.7 C140.5,294.6 138.4,296.5 136.3,298.1 L136.3,298.1 Z M167.2,243.5 L125.2,201.5 C125.2,201.5 128.2,175.4 150.9,141.5 C157.5,152.1 169,168.8 184.2,184.1 C200.1,200 216.7,211.3 227.1,217.7 C193.3,240.4 167.2,243.5 167.2,243.5 L167.2,243.5 Z M282.7,224.6 L275.3,222.1 L313.2,223.2 C315.7,216.3 317.5,209.1 318.7,201.7 C341.3,215 354,225.9 351.9,231.5 C348.9,238.7 321.9,235.5 282.7,224.6 L282.7,224.6 Z" id="Shape" fill="#1C2241"></path>
        </g>
    </g>
</svg>
