<?xml version="1.0" encoding="UTF-8"?>
<svg width="463px" height="392px" viewBox="0 0 463 392" version="1.1" xmlns="http://www.w3.org/2000/svg" xmlns:xlink="http://www.w3.org/1999/xlink">
    <!-- Generator: Sketch 46.2 (44496) - http://www.bohemiancoding.com/sketch -->
    <title>logo</title>
    <desc>Created with Sketch.</desc>
    <defs>
        <path d="M121.8,0 L121.8,0 C117,21 97,35 75.7,32.1 L75.7,32.2 C96.7,36.9 110.7,56.9 107.8,78.3 L107.9,78.3 C112.6,57.3 132.6,43.3 154,46.2 L154,46.1 C132.9,41.4 118.9,21.3 121.8,0 Z" id="path-1"></path>
        <filter x="-1.9%" y="-1.9%" width="103.8%" height="110.2%" filterUnits="objectBoundingBox" id="filter-2">
            <feOffset dx="0" dy="2" in="SourceAlpha" result="shadowOffsetOuter1"></feOffset>
            <feColorMatrix values="0 0 0 0 1   0 0 0 0 1   0 0 0 0 1  0 0 0 1 0" type="matrix" in="shadowOffsetOuter1" result="shadowMatrixOuter1"></feColorMatrix>
            <feOffset dx="0" dy="3" in="SourceAlpha" result="shadowOffsetOuter2"></feOffset>
            <feColorMatrix values="0 0 0 0 0.101960784   0 0 0 0 0.121568627   0 0 0 0 0.266666667  0 0 0 0.13 0" type="matrix" in="shadowOffsetOuter2" result="shadowMatrixOuter2"></feColorMatrix>
            <feMerge>
                <feMergeNode in="shadowMatrixOuter1"></feMergeNode>
                <feMergeNode in="shadowMatrixOuter2"></feMergeNode>
            </feMerge>
        </filter>
        <path d="M430.4,150 L430.4,150 C424.6,160.2 411.8,164.4 401.1,159.4 L401.1,159.4 C411.4,165.2 415.5,177.9 410.5,188.6 L410.5,188.6 C416.3,178.3 429,174.2 439.7,179.1 L439.7,179.1 C429.6,173.4 425.5,160.7 430.4,150 Z" id="path-3"></path>
        <filter x="-3.9%" y="-3.9%" width="107.8%" height="120.7%" filterUnits="objectBoundingBox" id="filter-4">
            <feOffset dx="0" dy="2" in="SourceAlpha" result="shadowOffsetOuter1"></feOffset>
            <feColorMatrix values="0 0 0 0 1   0 0 0 0 1   0 0 0 0 1  0 0 0 1 0" type="matrix" in="shadowOffsetOuter1" result="shadowMatrixOuter1"></feColorMatrix>
            <feOffset dx="0" dy="3" in="SourceAlpha" result="shadowOffsetOuter2"></feOffset>
            <feColorMatrix values="0 0 0 0 0.101960784   0 0 0 0 0.121568627   0 0 0 0 0.266666667  0 0 0 0.13 0" type="matrix" in="shadowOffsetOuter2" result="shadowMatrixOuter2"></feColorMatrix>
            <feMerge>
                <feMergeNode in="shadowMatrixOuter1"></feMergeNode>
                <feMergeNode in="shadowMatrixOuter2"></feMergeNode>
            </feMerge>
        </filter>
        <path d="M41.9,211.6 L41.9,211.6 C35.6,218.9 24.7,220.3 16.8,214.6 L16.8,214.6 C24.2,220.9 25.5,231.8 19.8,239.7 L19.8,239.7 C26.1,232.3 37,231 44.9,236.7 L44.9,236.7 C37.5,230.4 36.2,219.5 41.9,211.6 Z" id="path-5"></path>
        <filter x="-5.3%" y="-5.3%" width="110.7%" height="128.5%" filterUnits="objectBoundingBox" id="filter-6">
            <feOffset dx="0" dy="2" in="SourceAlpha" result="shadowOffsetOuter1"></feOffset>
            <feColorMatrix values="0 0 0 0 1   0 0 0 0 1   0 0 0 0 1  0 0 0 1 0" type="matrix" in="shadowOffsetOuter1" result="shadowMatrixOuter1"></feColorMatrix>
            <feOffset dx="0" dy="3" in="SourceAlpha" result="shadowOffsetOuter2"></feOffset>
            <feColorMatrix values="0 0 0 0 0.101960784   0 0 0 0 0.121568627   0 0 0 0 0.266666667  0 0 0 0.13 0" type="matrix" in="shadowOffsetOuter2" result="shadowMatrixOuter2"></feColorMatrix>
            <feMerge>
                <feMergeNode in="shadowMatrixOuter1"></feMergeNode>
                <feMergeNode in="shadowMatrixOuter2"></feMergeNode>
            </feMerge>
        </filter>
        <path d="M446.7,267.3 C432.1,253.5 380.5,224.6 380.5,224.6 C380.2,232.1 378.6,238.8 378.6,238.8 C404.8,253.2 412.5,265.8 411.8,270.5 C411.2,275.2 401.7,278 373.7,273.9 C369.9,273.3 365.9,272.7 362,271.9 L362,271.9 C362,271.9 361.9,271.9 361.6,271.8 C359.9,271.5 358.3,271.2 356.7,270.8 C356.7,270.8 356.7,270.8 356.7,270.7 C347.7,268.7 328.5,264.4 312.2,259.4 C312.2,259.4 341.6,261.7 361.3,259.5 C366.7,244.5 369.6,228.3 369.6,211.5 C369.6,191.5 365.8,173.1 358.4,155.8 C362.7,146.8 367,137 374.8,114.5 C375.3,112.9 376.7,108.2 377.2,106.6 C385.1,79.3 380.6,61.3 371.8,53.8 C362.1,45.6 338.3,45.7 311.2,54.7 C289.2,62 272.1,70.6 266.3,73.8 C253.3,69.9 241.1,68.7 226.9,68.7 C183,68.7 143.7,88.6 117.5,119.8 C108.5,117.4 73.9,108.3 52.2,104.9 C27,101 5.7,101 1.7,107.5 C-2.4,114 7.3,129.9 38,149 C51.3,157.3 67,166.3 82.7,174.8 L138.4,202.9 L85.9,190 C84.8,197.1 84.3,204.3 84.3,211.7 C84.3,223.3 85.7,234.6 88.3,245.4 C81.4,250.9 60.6,270.2 60.4,301.6 C60.4,301.6 60.4,313.2 60.2,320.7 C60,328.2 58,330.2 54.4,330.2 C50.7,330.2 41.1,333.2 41.1,343.1 C41.1,353 49.3,356.6 54.2,358.6 C59.1,360.5 77.4,366.6 88.6,368.5 C88.6,368.5 91,385.7 101.7,388.1 C112.5,390.5 117.8,384.2 120,380.4 C122.2,376.6 132.5,370.3 138.9,369 C145,367.8 166.4,362.8 177.7,345.8 C193.1,351.4 209.6,354.5 227,354.5 C280.2,354.5 326.5,325.4 351.1,282.3 C437.3,305 456.7,298.1 460.9,293.1 C465.2,287.7 461.3,281.1 446.7,267.3 Z M92,166.9 C84.9,163.3 45.1,137.6 52.6,128.2 C60.1,118.8 110,130.9 110,130.9 C99.9,144.1 92,166.9 92,166.9 Z" id="path-7"></path>
        <filter x="-0.3%" y="-0.4%" width="100.6%" height="102.3%" filterUnits="objectBoundingBox" id="filter-8">
            <feOffset dx="0" dy="2" in="SourceAlpha" result="shadowOffsetOuter1"></feOffset>
            <feColorMatrix values="0 0 0 0 1   0 0 0 0 1   0 0 0 0 1  0 0 0 1 0" type="matrix" in="shadowOffsetOuter1" result="shadowMatrixOuter1"></feColorMatrix>
            <feOffset dx="0" dy="3" in="SourceAlpha" result="shadowOffsetOuter2"></feOffset>
            <feColorMatrix values="0 0 0 0 0.101960784   0 0 0 0 0.121568627   0 0 0 0 0.266666667  0 0 0 0.13 0" type="matrix" in="shadowOffsetOuter2" result="shadowMatrixOuter2"></feColorMatrix>
            <feMerge>
                <feMergeNode in="shadowMatrixOuter1"></feMergeNode>
                <feMergeNode in="shadowMatrixOuter2"></feMergeNode>
            </feMerge>
        </filter>
    </defs>
    <g id="Page-1" stroke="none" stroke-width="1" fill="none" fill-rule="evenodd">
        <g id="logo" fill-rule="nonzero">
            <g id="Shape">
                <use fill="black" fill-opacity="1" filter="url(#filter-2)" xlink:href="#path-1"></use>
                <use fill="#1A1F44" fill-rule="evenodd" xlink:href="#path-1"></use>
            </g>
            <g id="Shape">
                <use fill="black" fill-opacity="1" filter="url(#filter-4)" xlink:href="#path-3"></use>
                <use fill="#1A1F44" fill-rule="evenodd" xlink:href="#path-3"></use>
            </g>
            <g id="Shape">
                <use fill="black" fill-opacity="1" filter="url(#filter-6)" xlink:href="#path-5"></use>
                <use fill="#1A1F44" fill-rule="evenodd" xlink:href="#path-5"></use>
            </g>
            <g id="Shape">
                <use fill="black" fill-opacity="1" filter="url(#filter-8)" xlink:href="#path-7"></use>
                <use fill="#1A1F44" fill-rule="evenodd" xlink:href="#path-7"></use>
            </g>
            <path d="M140.9,248.6 L180.7,289 C180.7,289 186.7,300 176,323.6 C165.2,347.3 145.7,355.2 135.6,356.7 C126,358.1 112.4,364.6 107.3,374.4 C106.9,375.1 105.9,375.2 105.5,374.5 C104.1,372.1 101.6,366.9 99,356.7 C99,356.7 65.7,350.9 54.5,343.6 C54.5,343.6 70.8,344.5 73,326.8 C75.2,309.2 71.7,293.9 79.5,277.8 C87.3,261.7 106.5,240.2 140.9,248.6 Z" id="Shape" fill="#F2482C"></path>
            <path d="M84.9,338.7 L103.7,342.8 C103.7,342.8 117.7,337 119,318.5 C119,318.5 122.9,332.3 121.4,344.7 C121.4,344.7 141.6,341.3 154.3,329.6 C167,318 167.2,296.1 167.2,296.1 L133,262.6 C133,262.6 112.8,257.4 97.7,276.8 C82.6,296.1 94.3,323.4 84.9,338.7 Z" id="Shape" fill="#FFDF7E"></path>
            <g id="Group" transform="translate(146.000000, 61.000000)" fill="#FFFFFF">
                <path d="M68.2,152.5 C51,134.9 36.8,113.9 30.3,103.6 C5.7,138.9 0.4,173.7 0.4,173.7 L49.8,222.2 C77.9,218 104.2,202.1 119.1,191.9 C109.1,185.5 84.4,169.3 68.2,152.5 Z" id="Shape"></path>
                <g transform="translate(39.000000, 0.000000)" id="Shape">
                    <path d="M145.4,3.4 C102.5,13 33.7,51.9 1.5,90.6 C1.3,90.8 1.1,91.1 0.9,91.3 C7.3,102.7 21.3,125.6 42.5,145.8 C63.8,166.1 83.3,177.4 92.5,182.4 C154,129.1 180.1,42.6 181.5,27.9 C182.9,13.2 188.3,-6.2 145.4,3.4 Z"></path>
                    <path d="M92,182.8 C92.1,182.8 92.1,182.8 92,182.8 L92,182.8 Z"></path>
                </g>
            </g>
        </g>
    </g>
</svg>
